<svg xmlns="http://www.w3.org/2000/svg" version="1.1" xmlns:xlink="http://www.w3.org/1999/xlink" xmlns:svgjs="http://svgjs.dev/svgjs" width="1440" height="560" preserveAspectRatio="none" viewBox="0 0 1440 560"><g mask="url(&quot;#SvgjsMask1000&quot;)" fill="none"><rect width="1440" height="560" x="0" y="0" fill="#0e2a47"></rect><path d="M46.04 -51.28L110.99 -13.78L110.99 61.22L46.04 98.72L-18.91 61.22L-18.91 -13.78zM110.99 61.22L175.95 98.72L175.95 173.72L110.99 211.22L46.04 173.72L46.04 98.72zM46.04 173.72L110.99 211.22L110.99 286.22L46.04 323.72L-18.91 286.22L-18.91 211.22zM110.99 286.22L175.95 323.72L175.95 398.72L110.99 436.22L46.04 398.72L46.04 323.72zM175.95 173.72L240.9 211.22L240.9 286.22L175.95 323.72L110.99 286.22L110.99 211.22zM240.9 286.22L305.86 323.72L305.86 398.72L240.9 436.22L175.95 398.72L175.95 323.72zM175.95 398.72L240.9 436.22L240.9 511.22L175.95 548.72L110.99 511.22L110.99 436.22zM240.9 511.22L305.86 548.72L305.86 623.72L240.9 661.22L175.95 623.72L175.95 548.72zM305.86 398.72L370.81 436.22L370.81 511.22L305.86 548.72L240.9 511.22L240.9 436.22zM435.76 -51.28L500.72 -13.78L500.72 61.22L435.76 98.72L370.81 61.22L370.81 -13.78zM500.72 286.22L565.67 323.72L565.67 398.72L500.72 436.22L435.76 398.72L435.76 323.72zM435.76 398.72L500.72 436.22L500.72 511.22L435.76 548.72L370.81 511.22L370.81 436.22zM500.72 511.22L565.67 548.72L565.67 623.72L500.72 661.22L435.76 623.72L435.76 548.72zM630.62 61.22L695.58 98.72L695.58 173.72L630.62 211.22L565.67 173.72L565.67 98.72zM565.67 173.72L630.62 211.22L630.62 286.22L565.67 323.72L500.72 286.22L500.72 211.22zM630.62 286.22L695.58 323.72L695.58 398.72L630.62 436.22L565.67 398.72L565.67 323.72zM565.67 398.72L630.62 436.22L630.62 511.22L565.67 548.72L500.72 511.22L500.72 436.22zM695.58 -51.28L760.53 -13.78L760.53 61.22L695.58 98.72L630.62 61.22L630.62 -13.78zM760.53 61.22L825.49 98.72L825.49 173.72L760.53 211.22L695.58 173.72L695.58 98.72zM695.58 173.72L760.53 211.22L760.53 286.22L695.58 323.72L630.62 286.22L630.62 211.22zM760.53 511.22L825.49 548.72L825.49 623.72L760.53 661.22L695.58 623.72L695.58 548.72zM825.48 -51.28L890.44 -13.78L890.44 61.22L825.48 98.72L760.53 61.22L760.53 -13.78zM890.44 286.22L955.39 323.72L955.39 398.72L890.44 436.22L825.48 398.72L825.48 323.72zM955.39 -51.28L1020.35 -13.78L1020.35 61.22L955.39 98.72L890.44 61.22L890.44 -13.78zM955.39 173.72L1020.35 211.22L1020.35 286.22L955.39 323.72L890.44 286.22L890.44 211.22zM1020.35 286.22L1085.3 323.72L1085.3 398.72L1020.35 436.22L955.39 398.72L955.39 323.72zM1020.35 511.22L1085.3 548.72L1085.3 623.72L1020.35 661.22L955.39 623.72L955.39 548.72zM1085.3 -51.28L1150.25 -13.78L1150.25 61.22L1085.3 98.72L1020.35 61.22L1020.35 -13.78zM1085.3 398.72L1150.25 436.22L1150.25 511.22L1085.3 548.72L1020.35 511.22L1020.35 436.22zM1150.25 511.22L1215.21 548.72L1215.21 623.72L1150.25 661.22L1085.3 623.72L1085.3 548.72zM1280.16 61.22L1345.11 98.72L1345.11 173.72L1280.16 211.22L1215.21 173.72L1215.21 98.72zM1215.21 173.72L1280.16 211.22L1280.16 286.22L1215.21 323.72L1150.25 286.22L1150.25 211.22zM1215.21 398.72L1280.16 436.22L1280.16 511.22L1215.21 548.72L1150.25 511.22L1150.25 436.22zM1280.16 511.22L1345.11 548.72L1345.11 623.72L1280.16 661.22L1215.21 623.72L1215.21 548.72zM1410.07 511.22L1475.02 548.72L1475.02 623.72L1410.07 661.22L1345.12 623.72L1345.12 548.72zM1539.98 61.22L1604.93 98.72L1604.93 173.72L1539.98 211.22L1475.02 173.72L1475.02 98.72zM1475.02 173.72L1539.98 211.22L1539.98 286.22L1475.02 323.72L1410.07 286.22L1410.07 211.22zM1539.98 286.22L1604.93 323.72L1604.93 398.72L1539.98 436.22L1475.02 398.72L1475.02 323.72zM1475.02 398.72L1539.98 436.22L1539.98 511.22L1475.02 548.72L1410.07 511.22L1410.07 436.22z" stroke="#03305d" stroke-width="2"></path><path d="M38.54 -51.28 a7.5 7.5 0 1 0 15 0 a7.5 7.5 0 1 0 -15 0zM103.49 -13.78 a7.5 7.5 0 1 0 15 0 a7.5 7.5 0 1 0 -15 0zM103.49 61.22 a7.5 7.5 0 1 0 15 0 a7.5 7.5 0 1 0 -15 0zM38.54 98.72 a7.5 7.5 0 1 0 15 0 a7.5 7.5 0 1 0 -15 0zM-26.41 61.22 a7.5 7.5 0 1 0 15 0 a7.5 7.5 0 1 0 -15 0zM-26.41 -13.78 a7.5 7.5 0 1 0 15 0 a7.5 7.5 0 1 0 -15 0zM168.45 98.72 a7.5 7.5 0 1 0 15 0 a7.5 7.5 0 1 0 -15 0zM168.45 173.72 a7.5 7.5 0 1 0 15 0 a7.5 7.5 0 1 0 -15 0zM103.49 211.22 a7.5 7.5 0 1 0 15 0 a7.5 7.5 0 1 0 -15 0zM38.54 173.72 a7.5 7.5 0 1 0 15 0 a7.5 7.5 0 1 0 -15 0zM103.49 286.22 a7.5 7.5 0 1 0 15 0 a7.5 7.5 0 1 0 -15 0zM38.54 323.72 a7.5 7.5 0 1 0 15 0 a7.5 7.5 0 1 0 -15 0zM-26.41 286.22 a7.5 7.5 0 1 0 15 0 a7.5 7.5 0 1 0 -15 0zM-26.41 211.22 a7.5 7.5 0 1 0 15 0 a7.5 7.5 0 1 0 -15 0zM168.45 323.72 a7.5 7.5 0 1 0 15 0 a7.5 7.5 0 1 0 -15 0zM168.45 398.72 a7.5 7.5 0 1 0 15 0 a7.5 7.5 0 1 0 -15 0zM103.49 436.22 a7.5 7.5 0 1 0 15 0 a7.5 7.5 0 1 0 -15 0zM38.54 398.72 a7.5 7.5 0 1 0 15 0 a7.5 7.5 0 1 0 -15 0zM233.4 211.22 a7.5 7.5 0 1 0 15 0 a7.5 7.5 0 1 0 -15 0zM233.4 286.22 a7.5 7.5 0 1 0 15 0 a7.5 7.5 0 1 0 -15 0zM298.36 323.72 a7.5 7.5 0 1 0 15 0 a7.5 7.5 0 1 0 -15 0zM298.36 398.72 a7.5 7.5 0 1 0 15 0 a7.5 7.5 0 1 0 -15 0zM233.4 436.22 a7.5 7.5 0 1 0 15 0 a7.5 7.5 0 1 0 -15 0zM233.4 511.22 a7.5 7.5 0 1 0 15 0 a7.5 7.5 0 1 0 -15 0zM168.45 548.72 a7.5 7.5 0 1 0 15 0 a7.5 7.5 0 1 0 -15 0zM103.49 511.22 a7.5 7.5 0 1 0 15 0 a7.5 7.5 0 1 0 -15 0zM298.36 548.72 a7.5 7.5 0 1 0 15 0 a7.5 7.5 0 1 0 -15 0zM298.36 623.72 a7.5 7.5 0 1 0 15 0 a7.5 7.5 0 1 0 -15 0zM233.4 661.22 a7.5 7.5 0 1 0 15 0 a7.5 7.5 0 1 0 -15 0zM168.45 623.72 a7.5 7.5 0 1 0 15 0 a7.5 7.5 0 1 0 -15 0zM363.31 436.22 a7.5 7.5 0 1 0 15 0 a7.5 7.5 0 1 0 -15 0zM363.31 511.22 a7.5 7.5 0 1 0 15 0 a7.5 7.5 0 1 0 -15 0zM428.26 -51.28 a7.5 7.5 0 1 0 15 0 a7.5 7.5 0 1 0 -15 0zM493.22 -13.78 a7.5 7.5 0 1 0 15 0 a7.5 7.5 0 1 0 -15 0zM493.22 61.22 a7.5 7.5 0 1 0 15 0 a7.5 7.5 0 1 0 -15 0zM428.26 98.72 a7.5 7.5 0 1 0 15 0 a7.5 7.5 0 1 0 -15 0zM363.31 61.22 a7.5 7.5 0 1 0 15 0 a7.5 7.5 0 1 0 -15 0zM363.31 -13.78 a7.5 7.5 0 1 0 15 0 a7.5 7.5 0 1 0 -15 0zM493.22 286.22 a7.5 7.5 0 1 0 15 0 a7.5 7.5 0 1 0 -15 0zM558.17 323.72 a7.5 7.5 0 1 0 15 0 a7.5 7.5 0 1 0 -15 0zM558.17 398.72 a7.5 7.5 0 1 0 15 0 a7.5 7.5 0 1 0 -15 0zM493.22 436.22 a7.5 7.5 0 1 0 15 0 a7.5 7.5 0 1 0 -15 0zM428.26 398.72 a7.5 7.5 0 1 0 15 0 a7.5 7.5 0 1 0 -15 0zM428.26 323.72 a7.5 7.5 0 1 0 15 0 a7.5 7.5 0 1 0 -15 0zM493.22 511.22 a7.5 7.5 0 1 0 15 0 a7.5 7.5 0 1 0 -15 0zM428.26 548.72 a7.5 7.5 0 1 0 15 0 a7.5 7.5 0 1 0 -15 0zM558.17 548.72 a7.5 7.5 0 1 0 15 0 a7.5 7.5 0 1 0 -15 0zM558.17 623.72 a7.5 7.5 0 1 0 15 0 a7.5 7.5 0 1 0 -15 0zM493.22 661.22 a7.5 7.5 0 1 0 15 0 a7.5 7.5 0 1 0 -15 0zM428.26 623.72 a7.5 7.5 0 1 0 15 0 a7.5 7.5 0 1 0 -15 0zM623.12 61.22 a7.5 7.5 0 1 0 15 0 a7.5 7.5 0 1 0 -15 0zM688.08 98.72 a7.5 7.5 0 1 0 15 0 a7.5 7.5 0 1 0 -15 0zM688.08 173.72 a7.5 7.5 0 1 0 15 0 a7.5 7.5 0 1 0 -15 0zM623.12 211.22 a7.5 7.5 0 1 0 15 0 a7.5 7.5 0 1 0 -15 0zM558.17 173.72 a7.5 7.5 0 1 0 15 0 a7.5 7.5 0 1 0 -15 0zM558.17 98.72 a7.5 7.5 0 1 0 15 0 a7.5 7.5 0 1 0 -15 0zM623.12 286.22 a7.5 7.5 0 1 0 15 0 a7.5 7.5 0 1 0 -15 0zM493.22 211.22 a7.5 7.5 0 1 0 15 0 a7.5 7.5 0 1 0 -15 0zM688.08 323.72 a7.5 7.5 0 1 0 15 0 a7.5 7.5 0 1 0 -15 0zM688.08 398.72 a7.5 7.5 0 1 0 15 0 a7.5 7.5 0 1 0 -15 0zM623.12 436.22 a7.5 7.5 0 1 0 15 0 a7.5 7.5 0 1 0 -15 0zM623.12 511.22 a7.5 7.5 0 1 0 15 0 a7.5 7.5 0 1 0 -15 0zM688.08 -51.28 a7.5 7.5 0 1 0 15 0 a7.5 7.5 0 1 0 -15 0zM753.03 -13.78 a7.5 7.5 0 1 0 15 0 a7.5 7.5 0 1 0 -15 0zM753.03 61.22 a7.5 7.5 0 1 0 15 0 a7.5 7.5 0 1 0 -15 0zM623.12 -13.78 a7.5 7.5 0 1 0 15 0 a7.5 7.5 0 1 0 -15 0zM817.99 98.72 a7.5 7.5 0 1 0 15 0 a7.5 7.5 0 1 0 -15 0zM817.99 173.72 a7.5 7.5 0 1 0 15 0 a7.5 7.5 0 1 0 -15 0zM753.03 211.22 a7.5 7.5 0 1 0 15 0 a7.5 7.5 0 1 0 -15 0zM753.03 286.22 a7.5 7.5 0 1 0 15 0 a7.5 7.5 0 1 0 -15 0zM753.03 511.22 a7.5 7.5 0 1 0 15 0 a7.5 7.5 0 1 0 -15 0zM817.99 548.72 a7.5 7.5 0 1 0 15 0 a7.5 7.5 0 1 0 -15 0zM817.99 623.72 a7.5 7.5 0 1 0 15 0 a7.5 7.5 0 1 0 -15 0zM753.03 661.22 a7.5 7.5 0 1 0 15 0 a7.5 7.5 0 1 0 -15 0zM688.08 623.72 a7.5 7.5 0 1 0 15 0 a7.5 7.5 0 1 0 -15 0zM688.08 548.72 a7.5 7.5 0 1 0 15 0 a7.5 7.5 0 1 0 -15 0zM817.98 -51.28 a7.5 7.5 0 1 0 15 0 a7.5 7.5 0 1 0 -15 0zM882.94 -13.78 a7.5 7.5 0 1 0 15 0 a7.5 7.5 0 1 0 -15 0zM882.94 61.22 a7.5 7.5 0 1 0 15 0 a7.5 7.5 0 1 0 -15 0zM817.98 98.72 a7.5 7.5 0 1 0 15 0 a7.5 7.5 0 1 0 -15 0zM882.94 286.22 a7.5 7.5 0 1 0 15 0 a7.5 7.5 0 1 0 -15 0zM947.89 323.72 a7.5 7.5 0 1 0 15 0 a7.5 7.5 0 1 0 -15 0zM947.89 398.72 a7.5 7.5 0 1 0 15 0 a7.5 7.5 0 1 0 -15 0zM882.94 436.22 a7.5 7.5 0 1 0 15 0 a7.5 7.5 0 1 0 -15 0zM817.98 398.72 a7.5 7.5 0 1 0 15 0 a7.5 7.5 0 1 0 -15 0zM817.98 323.72 a7.5 7.5 0 1 0 15 0 a7.5 7.5 0 1 0 -15 0zM947.89 -51.28 a7.5 7.5 0 1 0 15 0 a7.5 7.5 0 1 0 -15 0zM1012.85 -13.78 a7.5 7.5 0 1 0 15 0 a7.5 7.5 0 1 0 -15 0zM1012.85 61.22 a7.5 7.5 0 1 0 15 0 a7.5 7.5 0 1 0 -15 0zM947.89 98.72 a7.5 7.5 0 1 0 15 0 a7.5 7.5 0 1 0 -15 0zM947.89 173.72 a7.5 7.5 0 1 0 15 0 a7.5 7.5 0 1 0 -15 0zM1012.85 211.22 a7.5 7.5 0 1 0 15 0 a7.5 7.5 0 1 0 -15 0zM1012.85 286.22 a7.5 7.5 0 1 0 15 0 a7.5 7.5 0 1 0 -15 0zM882.94 211.22 a7.5 7.5 0 1 0 15 0 a7.5 7.5 0 1 0 -15 0zM1077.8 323.72 a7.5 7.5 0 1 0 15 0 a7.5 7.5 0 1 0 -15 0zM1077.8 398.72 a7.5 7.5 0 1 0 15 0 a7.5 7.5 0 1 0 -15 0zM1012.85 436.22 a7.5 7.5 0 1 0 15 0 a7.5 7.5 0 1 0 -15 0zM1012.85 511.22 a7.5 7.5 0 1 0 15 0 a7.5 7.5 0 1 0 -15 0zM1077.8 548.72 a7.5 7.5 0 1 0 15 0 a7.5 7.5 0 1 0 -15 0zM1077.8 623.72 a7.5 7.5 0 1 0 15 0 a7.5 7.5 0 1 0 -15 0zM1012.85 661.22 a7.5 7.5 0 1 0 15 0 a7.5 7.5 0 1 0 -15 0zM947.89 623.72 a7.5 7.5 0 1 0 15 0 a7.5 7.5 0 1 0 -15 0zM947.89 548.72 a7.5 7.5 0 1 0 15 0 a7.5 7.5 0 1 0 -15 0zM1077.8 -51.28 a7.5 7.5 0 1 0 15 0 a7.5 7.5 0 1 0 -15 0zM1142.75 -13.78 a7.5 7.5 0 1 0 15 0 a7.5 7.5 0 1 0 -15 0zM1142.75 61.22 a7.5 7.5 0 1 0 15 0 a7.5 7.5 0 1 0 -15 0zM1077.8 98.72 a7.5 7.5 0 1 0 15 0 a7.5 7.5 0 1 0 -15 0zM1142.75 436.22 a7.5 7.5 0 1 0 15 0 a7.5 7.5 0 1 0 -15 0zM1142.75 511.22 a7.5 7.5 0 1 0 15 0 a7.5 7.5 0 1 0 -15 0zM1207.71 548.72 a7.5 7.5 0 1 0 15 0 a7.5 7.5 0 1 0 -15 0zM1207.71 623.72 a7.5 7.5 0 1 0 15 0 a7.5 7.5 0 1 0 -15 0zM1142.75 661.22 a7.5 7.5 0 1 0 15 0 a7.5 7.5 0 1 0 -15 0zM1272.66 61.22 a7.5 7.5 0 1 0 15 0 a7.5 7.5 0 1 0 -15 0zM1337.61 98.72 a7.5 7.5 0 1 0 15 0 a7.5 7.5 0 1 0 -15 0zM1337.61 173.72 a7.5 7.5 0 1 0 15 0 a7.5 7.5 0 1 0 -15 0zM1272.66 211.22 a7.5 7.5 0 1 0 15 0 a7.5 7.5 0 1 0 -15 0zM1207.71 173.72 a7.5 7.5 0 1 0 15 0 a7.5 7.5 0 1 0 -15 0zM1207.71 98.72 a7.5 7.5 0 1 0 15 0 a7.5 7.5 0 1 0 -15 0zM1272.66 286.22 a7.5 7.5 0 1 0 15 0 a7.5 7.5 0 1 0 -15 0zM1207.71 323.72 a7.5 7.5 0 1 0 15 0 a7.5 7.5 0 1 0 -15 0zM1142.75 286.22 a7.5 7.5 0 1 0 15 0 a7.5 7.5 0 1 0 -15 0zM1142.75 211.22 a7.5 7.5 0 1 0 15 0 a7.5 7.5 0 1 0 -15 0zM1207.71 398.72 a7.5 7.5 0 1 0 15 0 a7.5 7.5 0 1 0 -15 0zM1272.66 436.22 a7.5 7.5 0 1 0 15 0 a7.5 7.5 0 1 0 -15 0zM1272.66 511.22 a7.5 7.5 0 1 0 15 0 a7.5 7.5 0 1 0 -15 0zM1337.61 548.72 a7.5 7.5 0 1 0 15 0 a7.5 7.5 0 1 0 -15 0zM1337.61 623.72 a7.5 7.5 0 1 0 15 0 a7.5 7.5 0 1 0 -15 0zM1272.66 661.22 a7.5 7.5 0 1 0 15 0 a7.5 7.5 0 1 0 -15 0zM1402.57 511.22 a7.5 7.5 0 1 0 15 0 a7.5 7.5 0 1 0 -15 0zM1467.52 548.72 a7.5 7.5 0 1 0 15 0 a7.5 7.5 0 1 0 -15 0zM1467.52 623.72 a7.5 7.5 0 1 0 15 0 a7.5 7.5 0 1 0 -15 0zM1402.57 661.22 a7.5 7.5 0 1 0 15 0 a7.5 7.5 0 1 0 -15 0zM1337.62 623.72 a7.5 7.5 0 1 0 15 0 a7.5 7.5 0 1 0 -15 0zM1337.62 548.72 a7.5 7.5 0 1 0 15 0 a7.5 7.5 0 1 0 -15 0zM1532.48 61.22 a7.5 7.5 0 1 0 15 0 a7.5 7.5 0 1 0 -15 0zM1597.43 98.72 a7.5 7.5 0 1 0 15 0 a7.5 7.5 0 1 0 -15 0zM1597.43 173.72 a7.5 7.5 0 1 0 15 0 a7.5 7.5 0 1 0 -15 0zM1532.48 211.22 a7.5 7.5 0 1 0 15 0 a7.5 7.5 0 1 0 -15 0zM1467.52 173.72 a7.5 7.5 0 1 0 15 0 a7.5 7.5 0 1 0 -15 0zM1467.52 98.72 a7.5 7.5 0 1 0 15 0 a7.5 7.5 0 1 0 -15 0zM1532.48 286.22 a7.5 7.5 0 1 0 15 0 a7.5 7.5 0 1 0 -15 0zM1467.52 323.72 a7.5 7.5 0 1 0 15 0 a7.5 7.5 0 1 0 -15 0zM1402.57 286.22 a7.5 7.5 0 1 0 15 0 a7.5 7.5 0 1 0 -15 0zM1402.57 211.22 a7.5 7.5 0 1 0 15 0 a7.5 7.5 0 1 0 -15 0zM1597.43 323.72 a7.5 7.5 0 1 0 15 0 a7.5 7.5 0 1 0 -15 0zM1597.43 398.72 a7.5 7.5 0 1 0 15 0 a7.5 7.5 0 1 0 -15 0zM1532.48 436.22 a7.5 7.5 0 1 0 15 0 a7.5 7.5 0 1 0 -15 0zM1467.52 398.72 a7.5 7.5 0 1 0 15 0 a7.5 7.5 0 1 0 -15 0zM1532.48 511.22 a7.5 7.5 0 1 0 15 0 a7.5 7.5 0 1 0 -15 0zM1402.57 436.22 a7.5 7.5 0 1 0 15 0 a7.5 7.5 0 1 0 -15 0z" fill="#03305d"></path><path d="M53.78 364.17L97.09 389.17L97.09 439.17L53.78 464.17L10.48 439.17L10.48 389.17zM140.39 64.17L183.69 89.17L183.69 139.17L140.39 164.17L97.09 139.17L97.09 89.17zM97.09 139.17L140.39 164.17L140.39 214.17L97.09 239.17L53.78 214.17L53.78 164.17zM140.39 214.17L183.69 239.17L183.69 289.17L140.39 314.17L97.09 289.17L97.09 239.17zM97.09 289.17L140.39 314.17L140.39 364.17L97.09 389.17L53.78 364.17L53.78 314.17zM140.39 364.17L183.69 389.17L183.69 439.17L140.39 464.17L97.09 439.17L97.09 389.17zM140.39 514.17L183.69 539.17L183.69 589.17L140.39 614.17L97.09 589.17L97.09 539.17zM183.69 -10.83L226.99 14.17L226.99 64.17L183.69 89.17L140.39 64.17L140.39 14.17zM183.69 139.17L226.99 164.17L226.99 214.17L183.69 239.17L140.39 214.17L140.39 164.17zM183.69 439.17L226.99 464.17L226.99 514.17L183.69 539.17L140.39 514.17L140.39 464.17zM270.3 -10.83L313.6 14.17L313.6 64.17L270.3 89.17L226.99 64.17L226.99 14.17zM313.6 214.17L356.9 239.17L356.9 289.17L313.6 314.17L270.3 289.17L270.3 239.17zM270.3 439.17L313.6 464.17L313.6 514.17L270.3 539.17L226.99 514.17L226.99 464.17zM356.9 289.17L400.2 314.17L400.2 364.17L356.9 389.17L313.6 364.17L313.6 314.17zM443.51 139.17L486.81 164.17L486.81 214.17L443.51 239.17L400.2 214.17L400.2 164.17zM443.51 289.17L486.81 314.17L486.81 364.17L443.51 389.17L400.2 364.17L400.2 314.17zM530.11 139.17L573.41 164.17L573.41 214.17L530.11 239.17L486.81 214.17L486.81 164.17zM573.41 514.17L616.72 539.17L616.72 589.17L573.41 614.17L530.11 589.17L530.11 539.17zM660.02 364.17L703.32 389.17L703.32 439.17L660.02 464.17L616.72 439.17L616.72 389.17zM746.62 214.17L789.93 239.17L789.93 289.17L746.62 314.17L703.32 289.17L703.32 239.17zM703.32 289.17L746.62 314.17L746.62 364.17L703.32 389.17L660.02 364.17L660.02 314.17zM833.23 364.17L876.53 389.17L876.53 439.17L833.23 464.17L789.93 439.17L789.93 389.17zM919.83 364.17L963.14 389.17L963.14 439.17L919.83 464.17L876.53 439.17L876.53 389.17zM919.83 514.17L963.14 539.17L963.14 589.17L919.83 614.17L876.53 589.17L876.53 539.17zM963.14 -10.83L1006.44 14.17L1006.44 64.17L963.14 89.17L919.83 64.17L919.83 14.17zM1006.44 64.17L1049.74 89.17L1049.74 139.17L1006.44 164.17L963.14 139.17L963.14 89.17zM963.14 289.17L1006.44 314.17L1006.44 364.17L963.14 389.17L919.83 364.17L919.83 314.17zM1006.44 364.17L1049.74 389.17L1049.74 439.17L1006.44 464.17L963.14 439.17L963.14 389.17zM1049.74 -10.83L1093.04 14.17L1093.04 64.17L1049.74 89.17L1006.44 64.17L1006.44 14.17zM1049.74 139.17L1093.04 164.17L1093.04 214.17L1049.74 239.17L1006.44 214.17L1006.44 164.17zM1136.35 289.17L1179.65 314.17L1179.65 364.17L1136.35 389.17L1093.04 364.17L1093.04 314.17zM1222.95 139.17L1266.25 164.17L1266.25 214.17L1222.95 239.17L1179.65 214.17L1179.65 164.17zM1266.25 514.17L1309.56 539.17L1309.56 589.17L1266.25 614.17L1222.95 589.17L1222.95 539.17zM1352.86 514.17L1396.16 539.17L1396.16 589.17L1352.86 614.17L1309.56 589.17L1309.56 539.17zM1439.46 214.17L1482.77 239.17L1482.77 289.17L1439.46 314.17L1396.16 289.17L1396.16 239.17zM1396.16 289.17L1439.46 314.17L1439.46 364.17L1396.16 389.17L1352.86 364.17L1352.86 314.17zM1439.46 364.17L1482.77 389.17L1482.77 439.17L1439.46 464.17L1396.16 439.17L1396.16 389.17z" stroke="rgba(6, 80, 156, 0.93)" stroke-width="2"></path></g><defs><mask id="SvgjsMask1000"><rect width="1440" height="560" fill="#ffffff"></rect></mask></defs></svg>