<svg xmlns="http://www.w3.org/2000/svg" version="1.1" xmlns:xlink="http://www.w3.org/1999/xlink" xmlns:svgjs="http://svgjs.dev/svgjs" width="1440" height="560" preserveAspectRatio="none" viewBox="0 0 1440 560"><g mask="url(&quot;#SvgjsMask1000&quot;)" fill="none"><rect width="1440" height="560" x="0" y="0" fill="#0e2a47"></rect><path d="M-48.88 387.52L-48.88 387.52" stroke="#132e65" stroke-width="1.5"></path><path d="M-48.88 387.52L74.54 399.24" stroke="#132e65" stroke-width="1.5"></path><path d="M-48.88 387.52L70.23 501.65" stroke="#132e65" stroke-width="1.5"></path><path d="M-48.88 387.52L-43.92 561.52" stroke="#132e65" stroke-width="1.5"></path><path d="M-48.88 387.52L41.24 672.04" stroke="#132e65" stroke-width="1.5"></path><path d="M-43.92 561.52L-43.92 561.52" stroke="#132e65" stroke-width="1.5"></path><path d="M-43.92 561.52L70.23 501.65" stroke="#132e65" stroke-width="1.5"></path><path d="M-43.92 561.52L-74.45 690.24" stroke="#132e65" stroke-width="1.5"></path><path d="M-43.92 561.52L41.24 672.04" stroke="#132e65" stroke-width="1.5"></path><path d="M-74.45 690.24L-74.45 690.24" stroke="#132e65" stroke-width="1.5"></path><path d="M-74.45 690.24L41.24 672.04" stroke="#132e65" stroke-width="1.5"></path><path d="M-74.45 690.24L70.23 501.65" stroke="#132e65" stroke-width="1.5"></path><path d="M74.54 399.24L74.54 399.24" stroke="#132e65" stroke-width="1.5"></path><path d="M74.54 399.24L70.23 501.65" stroke="#132e65" stroke-width="1.5"></path><path d="M74.54 399.24L-43.92 561.52" stroke="#132e65" stroke-width="1.5"></path><path d="M74.54 399.24L228.82 552.26" stroke="#132e65" stroke-width="1.5"></path><path d="M70.23 501.65L70.23 501.65" stroke="#132e65" stroke-width="1.5"></path><path d="M70.23 501.65L228.82 552.26" stroke="#132e65" stroke-width="1.5"></path><path d="M70.23 501.65L41.24 672.04" stroke="#132e65" stroke-width="1.5"></path><path d="M41.24 672.04L41.24 672.04" stroke="#132e65" stroke-width="1.5"></path><path d="M228.82 552.26L228.82 552.26" stroke="#132e65" stroke-width="1.5"></path><path d="M228.82 552.26L252.5 677.8" stroke="#132e65" stroke-width="1.5"></path><path d="M228.82 552.26L352.65 660.78" stroke="#132e65" stroke-width="1.5"></path><path d="M252.5 677.8L252.5 677.8" stroke="#132e65" stroke-width="1.5"></path><path d="M252.5 677.8L352.65 660.78" stroke="#132e65" stroke-width="1.5"></path><path d="M377.02 355.87L377.02 355.87" stroke="#132e65" stroke-width="1.5"></path><path d="M377.02 355.87L558.56 390.64" stroke="#132e65" stroke-width="1.5"></path><path d="M377.02 355.87L406.81 538.99" stroke="#132e65" stroke-width="1.5"></path><path d="M377.02 355.87L554.85 258.35" stroke="#132e65" stroke-width="1.5"></path><path d="M377.02 355.87L496.71 547.25" stroke="#132e65" stroke-width="1.5"></path><path d="M406.81 538.99L406.81 538.99" stroke="#132e65" stroke-width="1.5"></path><path d="M406.81 538.99L496.71 547.25" stroke="#132e65" stroke-width="1.5"></path><path d="M406.81 538.99L352.65 660.78" stroke="#132e65" stroke-width="1.5"></path><path d="M406.81 538.99L490.27 682.38" stroke="#132e65" stroke-width="1.5"></path><path d="M406.81 538.99L228.82 552.26" stroke="#132e65" stroke-width="1.5"></path><path d="M406.81 538.99L252.5 677.8" stroke="#132e65" stroke-width="1.5"></path><path d="M352.65 660.78L352.65 660.78" stroke="#132e65" stroke-width="1.5"></path><path d="M352.65 660.78L490.27 682.38" stroke="#132e65" stroke-width="1.5"></path><path d="M554.85 258.35L554.85 258.35" stroke="#132e65" stroke-width="1.5"></path><path d="M554.85 258.35L558.56 390.64" stroke="#132e65" stroke-width="1.5"></path><path d="M554.85 258.35L640.36 359.55" stroke="#132e65" stroke-width="1.5"></path><path d="M554.85 258.35L804.53 188.94" stroke="#132e65" stroke-width="1.5"></path><path d="M558.56 390.64L558.56 390.64" stroke="#132e65" stroke-width="1.5"></path><path d="M558.56 390.64L640.36 359.55" stroke="#132e65" stroke-width="1.5"></path><path d="M496.71 547.25L496.71 547.25" stroke="#132e65" stroke-width="1.5"></path><path d="M496.71 547.25L490.27 682.38" stroke="#132e65" stroke-width="1.5"></path><path d="M496.71 547.25L649.93 519.42" stroke="#132e65" stroke-width="1.5"></path><path d="M490.27 682.38L490.27 682.38" stroke="#132e65" stroke-width="1.5"></path><path d="M490.27 682.38L652.37 689.71" stroke="#132e65" stroke-width="1.5"></path><path d="M640.36 359.55L640.36 359.55" stroke="#132e65" stroke-width="1.5"></path><path d="M640.36 359.55L649.93 519.42" stroke="#132e65" stroke-width="1.5"></path><path d="M640.36 359.55L834.43 391.69" stroke="#132e65" stroke-width="1.5"></path><path d="M640.36 359.55L496.71 547.25" stroke="#132e65" stroke-width="1.5"></path><path d="M640.36 359.55L804.53 188.94" stroke="#132e65" stroke-width="1.5"></path><path d="M649.93 519.42L649.93 519.42" stroke="#132e65" stroke-width="1.5"></path><path d="M649.93 519.42L558.56 390.64" stroke="#132e65" stroke-width="1.5"></path><path d="M649.93 519.42L652.37 689.71" stroke="#132e65" stroke-width="1.5"></path><path d="M649.93 519.42L792.76 658.94" stroke="#132e65" stroke-width="1.5"></path><path d="M649.93 519.42L850.09 490.47" stroke="#132e65" stroke-width="1.5"></path><path d="M652.37 689.71L652.37 689.71" stroke="#132e65" stroke-width="1.5"></path><path d="M652.37 689.71L792.76 658.94" stroke="#132e65" stroke-width="1.5"></path><path d="M652.37 689.71L496.71 547.25" stroke="#132e65" stroke-width="1.5"></path><path d="M652.37 689.71L850.09 490.47" stroke="#132e65" stroke-width="1.5"></path><path d="M804.53 188.94L804.53 188.94" stroke="#132e65" stroke-width="1.5"></path><path d="M804.53 188.94L979.45 216.87" stroke="#132e65" stroke-width="1.5"></path><path d="M804.53 188.94L966.76 71.25" stroke="#132e65" stroke-width="1.5"></path><path d="M804.53 188.94L834.43 391.69" stroke="#132e65" stroke-width="1.5"></path><path d="M834.43 391.69L834.43 391.69" stroke="#132e65" stroke-width="1.5"></path><path d="M834.43 391.69L850.09 490.47" stroke="#132e65" stroke-width="1.5"></path><path d="M834.43 391.69L972.49 395.47" stroke="#132e65" stroke-width="1.5"></path><path d="M834.43 391.69L948.94 519.78" stroke="#132e65" stroke-width="1.5"></path><path d="M850.09 490.47L850.09 490.47" stroke="#132e65" stroke-width="1.5"></path><path d="M850.09 490.47L948.94 519.78" stroke="#132e65" stroke-width="1.5"></path><path d="M850.09 490.47L972.49 395.47" stroke="#132e65" stroke-width="1.5"></path><path d="M792.76 658.94L792.76 658.94" stroke="#132e65" stroke-width="1.5"></path><path d="M792.76 658.94L850.09 490.47" stroke="#132e65" stroke-width="1.5"></path><path d="M792.76 658.94L948.94 519.78" stroke="#132e65" stroke-width="1.5"></path><path d="M792.76 658.94L834.43 391.69" stroke="#132e65" stroke-width="1.5"></path><path d="M792.76 658.94L1088.91 669.43" stroke="#132e65" stroke-width="1.5"></path><path d="M970.06 -84.06L970.06 -84.06" stroke="#132e65" stroke-width="1.5"></path><path d="M970.06 -84.06L966.76 71.25" stroke="#132e65" stroke-width="1.5"></path><path d="M970.06 -84.06L1154.5 -103.01" stroke="#132e65" stroke-width="1.5"></path><path d="M970.06 -84.06L1160.92 61.86" stroke="#132e65" stroke-width="1.5"></path><path d="M970.06 -84.06L1268.69 -103.3" stroke="#132e65" stroke-width="1.5"></path><path d="M966.76 71.25L966.76 71.25" stroke="#132e65" stroke-width="1.5"></path><path d="M966.76 71.25L979.45 216.87" stroke="#132e65" stroke-width="1.5"></path><path d="M966.76 71.25L1160.92 61.86" stroke="#132e65" stroke-width="1.5"></path><path d="M979.45 216.87L979.45 216.87" stroke="#132e65" stroke-width="1.5"></path><path d="M979.45 216.87L1131.83 194.13" stroke="#132e65" stroke-width="1.5"></path><path d="M979.45 216.87L972.49 395.47" stroke="#132e65" stroke-width="1.5"></path><path d="M979.45 216.87L1130.48 383.05" stroke="#132e65" stroke-width="1.5"></path><path d="M972.49 395.47L972.49 395.47" stroke="#132e65" stroke-width="1.5"></path><path d="M972.49 395.47L948.94 519.78" stroke="#132e65" stroke-width="1.5"></path><path d="M972.49 395.47L1130.48 383.05" stroke="#132e65" stroke-width="1.5"></path><path d="M948.94 519.78L948.94 519.78" stroke="#132e65" stroke-width="1.5"></path><path d="M948.94 519.78L1132.98 501.09" stroke="#132e65" stroke-width="1.5"></path><path d="M948.94 519.78L1088.91 669.43" stroke="#132e65" stroke-width="1.5"></path><path d="M1154.5 -103.01L1154.5 -103.01" stroke="#132e65" stroke-width="1.5"></path><path d="M1154.5 -103.01L1268.69 -103.3" stroke="#132e65" stroke-width="1.5"></path><path d="M1154.5 -103.01L1160.92 61.86" stroke="#132e65" stroke-width="1.5"></path><path d="M1154.5 -103.01L1288.25 54.61" stroke="#132e65" stroke-width="1.5"></path><path d="M1160.92 61.86L1160.92 61.86" stroke="#132e65" stroke-width="1.5"></path><path d="M1160.92 61.86L1288.25 54.61" stroke="#132e65" stroke-width="1.5"></path><path d="M1160.92 61.86L1131.83 194.13" stroke="#132e65" stroke-width="1.5"></path><path d="M1160.92 61.86L1246.09 203.7" stroke="#132e65" stroke-width="1.5"></path><path d="M1131.83 194.13L1131.83 194.13" stroke="#132e65" stroke-width="1.5"></path><path d="M1131.83 194.13L1246.09 203.7" stroke="#132e65" stroke-width="1.5"></path><path d="M1131.83 194.13L1130.48 383.05" stroke="#132e65" stroke-width="1.5"></path><path d="M1130.48 383.05L1130.48 383.05" stroke="#132e65" stroke-width="1.5"></path><path d="M1130.48 383.05L1132.98 501.09" stroke="#132e65" stroke-width="1.5"></path><path d="M1130.48 383.05L1269.18 347.19" stroke="#132e65" stroke-width="1.5"></path><path d="M1132.98 501.09L1132.98 501.09" stroke="#132e65" stroke-width="1.5"></path><path d="M1132.98 501.09L1241.13 519.28" stroke="#132e65" stroke-width="1.5"></path><path d="M1132.98 501.09L1088.91 669.43" stroke="#132e65" stroke-width="1.5"></path><path d="M1088.91 669.43L1088.91 669.43" stroke="#132e65" stroke-width="1.5"></path><path d="M1088.91 669.43L1265.59 640.05" stroke="#132e65" stroke-width="1.5"></path><path d="M1268.69 -103.3L1268.69 -103.3" stroke="#132e65" stroke-width="1.5"></path><path d="M1268.69 -103.3L1397.68 -54.5" stroke="#132e65" stroke-width="1.5"></path><path d="M1268.69 -103.3L1288.25 54.61" stroke="#132e65" stroke-width="1.5"></path><path d="M1268.69 -103.3L1395.84 44.05" stroke="#132e65" stroke-width="1.5"></path><path d="M1268.69 -103.3L1160.92 61.86" stroke="#132e65" stroke-width="1.5"></path><path d="M1288.25 54.61L1288.25 54.61" stroke="#132e65" stroke-width="1.5"></path><path d="M1288.25 54.61L1395.84 44.05" stroke="#132e65" stroke-width="1.5"></path><path d="M1288.25 54.61L1397.68 -54.5" stroke="#132e65" stroke-width="1.5"></path><path d="M1288.25 54.61L1246.09 203.7" stroke="#132e65" stroke-width="1.5"></path><path d="M1246.09 203.7L1246.09 203.7" stroke="#132e65" stroke-width="1.5"></path><path d="M1246.09 203.7L1269.18 347.19" stroke="#132e65" stroke-width="1.5"></path><path d="M1246.09 203.7L1392.69 188.44" stroke="#132e65" stroke-width="1.5"></path><path d="M1269.18 347.19L1269.18 347.19" stroke="#132e65" stroke-width="1.5"></path><path d="M1241.13 519.28L1241.13 519.28" stroke="#132e65" stroke-width="1.5"></path><path d="M1241.13 519.28L1265.59 640.05" stroke="#132e65" stroke-width="1.5"></path><path d="M1241.13 519.28L1269.18 347.19" stroke="#132e65" stroke-width="1.5"></path><path d="M1265.59 640.05L1265.59 640.05" stroke="#132e65" stroke-width="1.5"></path><path d="M1265.59 640.05L1439.43 654.82" stroke="#132e65" stroke-width="1.5"></path><path d="M1397.68 -54.5L1397.68 -54.5" stroke="#132e65" stroke-width="1.5"></path><path d="M1397.68 -54.5L1395.84 44.05" stroke="#132e65" stroke-width="1.5"></path><path d="M1397.68 -54.5L1598.16 -49.97" stroke="#132e65" stroke-width="1.5"></path><path d="M1397.68 -54.5L1600.9 46.88" stroke="#132e65" stroke-width="1.5"></path><path d="M1397.68 -54.5L1392.69 188.44" stroke="#132e65" stroke-width="1.5"></path><path d="M1395.84 44.05L1395.84 44.05" stroke="#132e65" stroke-width="1.5"></path><path d="M1395.84 44.05L1392.69 188.44" stroke="#132e65" stroke-width="1.5"></path><path d="M1392.69 188.44L1392.69 188.44" stroke="#132e65" stroke-width="1.5"></path><path d="M1392.69 188.44L1288.25 54.61" stroke="#132e65" stroke-width="1.5"></path><path d="M1392.69 188.44L1575.04 248.29" stroke="#132e65" stroke-width="1.5"></path><path d="M1392.69 188.44L1447.41 373.91" stroke="#132e65" stroke-width="1.5"></path><path d="M1447.41 373.91L1447.41 373.91" stroke="#132e65" stroke-width="1.5"></path><path d="M1447.41 373.91L1416.75 498.24" stroke="#132e65" stroke-width="1.5"></path><path d="M1447.41 373.91L1604.67 365.79" stroke="#132e65" stroke-width="1.5"></path><path d="M1447.41 373.91L1575.04 248.29" stroke="#132e65" stroke-width="1.5"></path><path d="M1416.75 498.24L1416.75 498.24" stroke="#132e65" stroke-width="1.5"></path><path d="M1416.75 498.24L1439.43 654.82" stroke="#132e65" stroke-width="1.5"></path><path d="M1416.75 498.24L1241.13 519.28" stroke="#132e65" stroke-width="1.5"></path><path d="M1416.75 498.24L1609.75 494.51" stroke="#132e65" stroke-width="1.5"></path><path d="M1416.75 498.24L1265.59 640.05" stroke="#132e65" stroke-width="1.5"></path><path d="M1439.43 654.82L1439.43 654.82" stroke="#132e65" stroke-width="1.5"></path><path d="M1439.43 654.82L1547.91 659.79" stroke="#132e65" stroke-width="1.5"></path><path d="M1439.43 654.82L1609.75 494.51" stroke="#132e65" stroke-width="1.5"></path><path d="M1439.43 654.82L1241.13 519.28" stroke="#132e65" stroke-width="1.5"></path><path d="M1439.43 654.82L1447.41 373.91" stroke="#132e65" stroke-width="1.5"></path><path d="M1598.16 -49.97L1598.16 -49.97" stroke="#132e65" stroke-width="1.5"></path><path d="M1598.16 -49.97L1600.9 46.88" stroke="#132e65" stroke-width="1.5"></path><path d="M1598.16 -49.97L1395.84 44.05" stroke="#132e65" stroke-width="1.5"></path><path d="M1598.16 -49.97L1575.04 248.29" stroke="#132e65" stroke-width="1.5"></path><path d="M1600.9 46.88L1600.9 46.88" stroke="#132e65" stroke-width="1.5"></path><path d="M1600.9 46.88L1575.04 248.29" stroke="#132e65" stroke-width="1.5"></path><path d="M1600.9 46.88L1395.84 44.05" stroke="#132e65" stroke-width="1.5"></path><path d="M1575.04 248.29L1575.04 248.29" stroke="#132e65" stroke-width="1.5"></path><path d="M1575.04 248.29L1604.67 365.79" stroke="#132e65" stroke-width="1.5"></path><path d="M1604.67 365.79L1604.67 365.79" stroke="#132e65" stroke-width="1.5"></path><path d="M1604.67 365.79L1609.75 494.51" stroke="#132e65" stroke-width="1.5"></path><path d="M1604.67 365.79L1416.75 498.24" stroke="#132e65" stroke-width="1.5"></path><path d="M1604.67 365.79L1392.69 188.44" stroke="#132e65" stroke-width="1.5"></path><path d="M1609.75 494.51L1609.75 494.51" stroke="#132e65" stroke-width="1.5"></path><path d="M1609.75 494.51L1547.91 659.79" stroke="#132e65" stroke-width="1.5"></path><path d="M1547.91 659.79L1547.91 659.79" stroke="#132e65" stroke-width="1.5"></path><path d="M1547.91 659.79L1416.75 498.24" stroke="#132e65" stroke-width="1.5"></path><path d="M1547.91 659.79L1265.59 640.05" stroke="#132e65" stroke-width="1.5"></path><path d="M1547.91 659.79L1604.67 365.79" stroke="#132e65" stroke-width="1.5"></path><path d="M1547.91 659.79L1447.41 373.91" stroke="#132e65" stroke-width="1.5"></path><circle r="5" cx="-48.88" cy="387.52" fill="#132e65"></circle><circle r="5" cx="-43.92" cy="561.52" fill="#132e65"></circle><circle r="5" cx="-74.45" cy="690.24" fill="#132e65"></circle><circle r="5" cx="74.54" cy="399.24" fill="#132e65"></circle><circle r="5" cx="70.23" cy="501.65" fill="#132e65"></circle><circle r="5" cx="41.24" cy="672.04" fill="#132e65"></circle><circle r="5" cx="228.82" cy="552.26" fill="#132e65"></circle><circle r="5" cx="252.5" cy="677.8" fill="#132e65"></circle><circle r="5" cx="377.02" cy="355.87" fill="#132e65"></circle><circle r="5" cx="406.81" cy="538.99" fill="#132e65"></circle><circle r="5" cx="352.65" cy="660.78" fill="#132e65"></circle><circle r="5" cx="554.85" cy="258.35" fill="#132e65"></circle><circle r="5" cx="558.56" cy="390.64" fill="#132e65"></circle><circle r="5" cx="496.71" cy="547.25" fill="#132e65"></circle><circle r="5" cx="490.27" cy="682.38" fill="#132e65"></circle><circle r="5" cx="640.36" cy="359.55" fill="#132e65"></circle><circle r="5" cx="649.93" cy="519.42" fill="#132e65"></circle><circle r="5" cx="652.37" cy="689.71" fill="#132e65"></circle><circle r="5" cx="804.53" cy="188.94" fill="#132e65"></circle><circle r="5" cx="834.43" cy="391.69" fill="#132e65"></circle><circle r="5" cx="850.09" cy="490.47" fill="#132e65"></circle><circle r="5" cx="792.76" cy="658.94" fill="#132e65"></circle><circle r="5" cx="970.06" cy="-84.06" fill="#132e65"></circle><circle r="5" cx="966.76" cy="71.25" fill="#132e65"></circle><circle r="5" cx="979.45" cy="216.87" fill="#132e65"></circle><circle r="5" cx="972.49" cy="395.47" fill="#132e65"></circle><circle r="5" cx="948.94" cy="519.78" fill="#132e65"></circle><circle r="5" cx="1154.5" cy="-103.01" fill="#132e65"></circle><circle r="5" cx="1160.92" cy="61.86" fill="#132e65"></circle><circle r="5" cx="1131.83" cy="194.13" fill="#132e65"></circle><circle r="5" cx="1130.48" cy="383.05" fill="#132e65"></circle><circle r="5" cx="1132.98" cy="501.09" fill="#132e65"></circle><circle r="5" cx="1088.91" cy="669.43" fill="#132e65"></circle><circle r="5" cx="1268.69" cy="-103.3" fill="#132e65"></circle><circle r="5" cx="1288.25" cy="54.61" fill="#132e65"></circle><circle r="5" cx="1246.09" cy="203.7" fill="#132e65"></circle><circle r="5" cx="1269.18" cy="347.19" fill="#132e65"></circle><circle r="5" cx="1241.13" cy="519.28" fill="#132e65"></circle><circle r="5" cx="1265.59" cy="640.05" fill="#132e65"></circle><circle r="5" cx="1397.68" cy="-54.5" fill="#132e65"></circle><circle r="5" cx="1395.84" cy="44.05" fill="#132e65"></circle><circle r="5" cx="1392.69" cy="188.44" fill="#132e65"></circle><circle r="5" cx="1447.41" cy="373.91" fill="#132e65"></circle><circle r="5" cx="1416.75" cy="498.24" fill="#132e65"></circle><circle r="5" cx="1439.43" cy="654.82" fill="#132e65"></circle><circle r="5" cx="1598.16" cy="-49.97" fill="#132e65"></circle><circle r="5" cx="1600.9" cy="46.88" fill="#132e65"></circle><circle r="5" cx="1575.04" cy="248.29" fill="#132e65"></circle><circle r="5" cx="1604.67" cy="365.79" fill="#132e65"></circle><circle r="5" cx="1609.75" cy="494.51" fill="#132e65"></circle><circle r="5" cx="1547.91" cy="659.79" fill="#132e65"></circle><path d="M688.67 404.74L688.67 404.74" stroke="hsl(228.5, 77.2%, 51.5%)" stroke-width="1.5"></path><path d="M688.67 404.74L699.26 540.13" stroke="hsl(228.5, 77.2%, 51.5%)" stroke-width="1.5"></path><path d="M1000.65 243.47L1000.65 243.47" stroke="hsl(228.5, 77.2%, 51.5%)" stroke-width="1.5"></path><path d="M1000.65 243.47L1096.79 205.63" stroke="hsl(228.5, 77.2%, 51.5%)" stroke-width="1.5"></path><path d="M1000.65 243.47L952.82 390.23" stroke="hsl(228.5, 77.2%, 51.5%)" stroke-width="1.5"></path><path d="M1000.65 243.47L1130.92 381.62" stroke="hsl(228.5, 77.2%, 51.5%)" stroke-width="1.5"></path><path d="M1000.65 243.47L809.76 338.85" stroke="hsl(228.5, 77.2%, 51.5%)" stroke-width="1.5"></path><path d="M1000.65 243.47L1265.67 224.2" stroke="hsl(228.5, 77.2%, 51.5%)" stroke-width="1.5"></path><path d="M1289.31 105.89L1289.31 105.89" stroke="hsl(228.5, 77.2%, 51.5%)" stroke-width="1.5"></path><path d="M1289.31 105.89L1393.74 106.42" stroke="hsl(228.5, 77.2%, 51.5%)" stroke-width="1.5"></path><path d="M1289.31 105.89L1265.67 224.2" stroke="hsl(228.5, 77.2%, 51.5%)" stroke-width="1.5"></path><path d="M1289.31 105.89L1426.48 246.65" stroke="hsl(228.5, 77.2%, 51.5%)" stroke-width="1.5"></path><path d="M1289.31 105.89L1288.55 -103.61" stroke="hsl(228.5, 77.2%, 51.5%)" stroke-width="1.5"></path><path d="M1289.31 105.89L1395.33 -79.12" stroke="hsl(228.5, 77.2%, 51.5%)" stroke-width="1.5"></path><path d="M1289.31 105.89L1096.79 205.63" stroke="hsl(228.5, 77.2%, 51.5%)" stroke-width="1.5"></path><path d="M1395.33 -79.12L1395.33 -79.12" stroke="hsl(228.5, 77.2%, 51.5%)" stroke-width="1.5"></path><path d="M1395.33 -79.12L1288.55 -103.61" stroke="hsl(228.5, 77.2%, 51.5%)" stroke-width="1.5"></path><path d="M1395.33 -79.12L1393.74 106.42" stroke="hsl(228.5, 77.2%, 51.5%)" stroke-width="1.5"></path><path d="M1457.38 705.03L1457.38 705.03" stroke="hsl(228.5, 77.2%, 51.5%)" stroke-width="1.5"></path><path d="M1457.38 705.03L1606.9 705.5" stroke="hsl(228.5, 77.2%, 51.5%)" stroke-width="1.5"></path><path d="M1457.38 705.03L1291.77 700.85" stroke="hsl(228.5, 77.2%, 51.5%)" stroke-width="1.5"></path><path d="M1457.38 705.03L1566.71 557.94" stroke="hsl(228.5, 77.2%, 51.5%)" stroke-width="1.5"></path><path d="M1457.38 705.03L1460.94 516.87" stroke="hsl(228.5, 77.2%, 51.5%)" stroke-width="1.5"></path><path d="M1457.38 705.03L1298 517.68" stroke="hsl(228.5, 77.2%, 51.5%)" stroke-width="1.5"></path><path d="M1566.71 557.94L1566.71 557.94" stroke="hsl(228.5, 77.2%, 51.5%)" stroke-width="1.5"></path><path d="M1566.71 557.94L1460.94 516.87" stroke="hsl(228.5, 77.2%, 51.5%)" stroke-width="1.5"></path><path d="M1566.71 557.94L1606.9 705.5" stroke="hsl(228.5, 77.2%, 51.5%)" stroke-width="1.5"></path><path d="M1566.71 557.94L1602.6 369.28" stroke="hsl(228.5, 77.2%, 51.5%)" stroke-width="1.5"></path><path d="M1566.71 557.94L1421.63 348.41" stroke="hsl(228.5, 77.2%, 51.5%)" stroke-width="1.5"></path><path d="M1566.71 557.94L1298 517.68" stroke="hsl(228.5, 77.2%, 51.5%)" stroke-width="1.5"></path><path d="M-103.96 518.21L-103.96 518.21" stroke="hsl(228.5, 77.2%, 51.5%)" stroke-width="1.5"></path><path d="M-103.96 518.21L-49.98 658.48" stroke="hsl(228.5, 77.2%, 51.5%)" stroke-width="1.5"></path><path d="M-103.96 518.21L99.96 553.02" stroke="hsl(228.5, 77.2%, 51.5%)" stroke-width="1.5"></path><path d="M-49.98 658.48L-49.98 658.48" stroke="hsl(228.5, 77.2%, 51.5%)" stroke-width="1.5"></path><path d="M-49.98 658.48L59.11 690.3" stroke="hsl(228.5, 77.2%, 51.5%)" stroke-width="1.5"></path><path d="M-49.98 658.48L99.96 553.02" stroke="hsl(228.5, 77.2%, 51.5%)" stroke-width="1.5"></path><path d="M-49.98 658.48L213.66 542.31" stroke="hsl(228.5, 77.2%, 51.5%)" stroke-width="1.5"></path><path d="M-49.98 658.48L250.62 708.69" stroke="hsl(228.5, 77.2%, 51.5%)" stroke-width="1.5"></path><path d="M-49.98 658.48L402.04 710.81" stroke="hsl(228.5, 77.2%, 51.5%)" stroke-width="1.5"></path><path d="M99.96 553.02L99.96 553.02" stroke="hsl(228.5, 77.2%, 51.5%)" stroke-width="1.5"></path><path d="M99.96 553.02L213.66 542.31" stroke="hsl(228.5, 77.2%, 51.5%)" stroke-width="1.5"></path><path d="M99.96 553.02L59.11 690.3" stroke="hsl(228.5, 77.2%, 51.5%)" stroke-width="1.5"></path><path d="M99.96 553.02L250.62 708.69" stroke="hsl(228.5, 77.2%, 51.5%)" stroke-width="1.5"></path><path d="M99.96 553.02L406.22 509.47" stroke="hsl(228.5, 77.2%, 51.5%)" stroke-width="1.5"></path><path d="M59.11 690.3L59.11 690.3" stroke="hsl(228.5, 77.2%, 51.5%)" stroke-width="1.5"></path><path d="M59.11 690.3L250.62 708.69" stroke="hsl(228.5, 77.2%, 51.5%)" stroke-width="1.5"></path><path d="M59.11 690.3L213.66 542.31" stroke="hsl(228.5, 77.2%, 51.5%)" stroke-width="1.5"></path><path d="M59.11 690.3L-103.96 518.21" stroke="hsl(228.5, 77.2%, 51.5%)" stroke-width="1.5"></path><path d="M59.11 690.3L402.04 710.81" stroke="hsl(228.5, 77.2%, 51.5%)" stroke-width="1.5"></path><path d="M213.66 542.31L213.66 542.31" stroke="hsl(228.5, 77.2%, 51.5%)" stroke-width="1.5"></path><path d="M213.66 542.31L250.62 708.69" stroke="hsl(228.5, 77.2%, 51.5%)" stroke-width="1.5"></path><path d="M213.66 542.31L406.22 509.47" stroke="hsl(228.5, 77.2%, 51.5%)" stroke-width="1.5"></path><path d="M213.66 542.31L402.04 710.81" stroke="hsl(228.5, 77.2%, 51.5%)" stroke-width="1.5"></path><path d="M250.62 708.69L250.62 708.69" stroke="hsl(228.5, 77.2%, 51.5%)" stroke-width="1.5"></path><path d="M250.62 708.69L402.04 710.81" stroke="hsl(228.5, 77.2%, 51.5%)" stroke-width="1.5"></path><path d="M250.62 708.69L489.62 638.07" stroke="hsl(228.5, 77.2%, 51.5%)" stroke-width="1.5"></path><path d="M406.22 509.47L406.22 509.47" stroke="hsl(228.5, 77.2%, 51.5%)" stroke-width="1.5"></path><path d="M406.22 509.47L505.41 517.21" stroke="hsl(228.5, 77.2%, 51.5%)" stroke-width="1.5"></path><path d="M406.22 509.47L489.62 638.07" stroke="hsl(228.5, 77.2%, 51.5%)" stroke-width="1.5"></path><path d="M406.22 509.47L402.04 710.81" stroke="hsl(228.5, 77.2%, 51.5%)" stroke-width="1.5"></path><path d="M402.04 710.81L402.04 710.81" stroke="hsl(228.5, 77.2%, 51.5%)" stroke-width="1.5"></path><path d="M402.04 710.81L489.62 638.07" stroke="hsl(228.5, 77.2%, 51.5%)" stroke-width="1.5"></path><path d="M505.41 517.21L505.41 517.21" stroke="hsl(228.5, 77.2%, 51.5%)" stroke-width="1.5"></path><path d="M505.41 517.21L489.62 638.07" stroke="hsl(228.5, 77.2%, 51.5%)" stroke-width="1.5"></path><path d="M505.41 517.21L699.26 540.13" stroke="hsl(228.5, 77.2%, 51.5%)" stroke-width="1.5"></path><path d="M505.41 517.21L688.67 404.74" stroke="hsl(228.5, 77.2%, 51.5%)" stroke-width="1.5"></path><path d="M489.62 638.07L489.62 638.07" stroke="hsl(228.5, 77.2%, 51.5%)" stroke-width="1.5"></path><path d="M489.62 638.07L659.85 693.41" stroke="hsl(228.5, 77.2%, 51.5%)" stroke-width="1.5"></path><path d="M489.62 638.07L699.26 540.13" stroke="hsl(228.5, 77.2%, 51.5%)" stroke-width="1.5"></path><path d="M699.26 540.13L699.26 540.13" stroke="hsl(228.5, 77.2%, 51.5%)" stroke-width="1.5"></path><path d="M699.26 540.13L847.35 512.93" stroke="hsl(228.5, 77.2%, 51.5%)" stroke-width="1.5"></path><path d="M699.26 540.13L808.02 647.32" stroke="hsl(228.5, 77.2%, 51.5%)" stroke-width="1.5"></path><path d="M659.85 693.41L659.85 693.41" stroke="hsl(228.5, 77.2%, 51.5%)" stroke-width="1.5"></path><path d="M659.85 693.41L808.02 647.32" stroke="hsl(228.5, 77.2%, 51.5%)" stroke-width="1.5"></path><path d="M659.85 693.41L699.26 540.13" stroke="hsl(228.5, 77.2%, 51.5%)" stroke-width="1.5"></path><path d="M809.76 338.85L809.76 338.85" stroke="hsl(228.5, 77.2%, 51.5%)" stroke-width="1.5"></path><path d="M809.76 338.85L688.67 404.74" stroke="hsl(228.5, 77.2%, 51.5%)" stroke-width="1.5"></path><path d="M809.76 338.85L952.82 390.23" stroke="hsl(228.5, 77.2%, 51.5%)" stroke-width="1.5"></path><path d="M809.76 338.85L847.35 512.93" stroke="hsl(228.5, 77.2%, 51.5%)" stroke-width="1.5"></path><path d="M809.76 338.85L699.26 540.13" stroke="hsl(228.5, 77.2%, 51.5%)" stroke-width="1.5"></path><path d="M809.76 338.85L971.15 540.91" stroke="hsl(228.5, 77.2%, 51.5%)" stroke-width="1.5"></path><path d="M847.35 512.93L847.35 512.93" stroke="hsl(228.5, 77.2%, 51.5%)" stroke-width="1.5"></path><path d="M847.35 512.93L971.15 540.91" stroke="hsl(228.5, 77.2%, 51.5%)" stroke-width="1.5"></path><path d="M847.35 512.93L808.02 647.32" stroke="hsl(228.5, 77.2%, 51.5%)" stroke-width="1.5"></path><path d="M808.02 647.32L808.02 647.32" stroke="hsl(228.5, 77.2%, 51.5%)" stroke-width="1.5"></path><path d="M808.02 647.32L979.87 698.27" stroke="hsl(228.5, 77.2%, 51.5%)" stroke-width="1.5"></path><path d="M808.02 647.32L971.15 540.91" stroke="hsl(228.5, 77.2%, 51.5%)" stroke-width="1.5"></path><path d="M808.02 647.32L688.67 404.74" stroke="hsl(228.5, 77.2%, 51.5%)" stroke-width="1.5"></path><path d="M952.82 390.23L952.82 390.23" stroke="hsl(228.5, 77.2%, 51.5%)" stroke-width="1.5"></path><path d="M952.82 390.23L971.15 540.91" stroke="hsl(228.5, 77.2%, 51.5%)" stroke-width="1.5"></path><path d="M971.15 540.91L971.15 540.91" stroke="hsl(228.5, 77.2%, 51.5%)" stroke-width="1.5"></path><path d="M979.87 698.27L979.87 698.27" stroke="hsl(228.5, 77.2%, 51.5%)" stroke-width="1.5"></path><path d="M979.87 698.27L971.15 540.91" stroke="hsl(228.5, 77.2%, 51.5%)" stroke-width="1.5"></path><path d="M979.87 698.27L1145.86 701.21" stroke="hsl(228.5, 77.2%, 51.5%)" stroke-width="1.5"></path><path d="M979.87 698.27L1106.12 556.71" stroke="hsl(228.5, 77.2%, 51.5%)" stroke-width="1.5"></path><path d="M979.87 698.27L847.35 512.93" stroke="hsl(228.5, 77.2%, 51.5%)" stroke-width="1.5"></path><path d="M979.87 698.27L952.82 390.23" stroke="hsl(228.5, 77.2%, 51.5%)" stroke-width="1.5"></path><path d="M1096.79 205.63L1096.79 205.63" stroke="hsl(228.5, 77.2%, 51.5%)" stroke-width="1.5"></path><path d="M1096.79 205.63L1265.67 224.2" stroke="hsl(228.5, 77.2%, 51.5%)" stroke-width="1.5"></path><path d="M1096.79 205.63L1130.92 381.62" stroke="hsl(228.5, 77.2%, 51.5%)" stroke-width="1.5"></path><path d="M1096.79 205.63L952.82 390.23" stroke="hsl(228.5, 77.2%, 51.5%)" stroke-width="1.5"></path><path d="M1096.79 205.63L1393.74 106.42" stroke="hsl(228.5, 77.2%, 51.5%)" stroke-width="1.5"></path><path d="M1130.92 381.62L1130.92 381.62" stroke="hsl(228.5, 77.2%, 51.5%)" stroke-width="1.5"></path><path d="M1130.92 381.62L1106.12 556.71" stroke="hsl(228.5, 77.2%, 51.5%)" stroke-width="1.5"></path><path d="M1130.92 381.62L952.82 390.23" stroke="hsl(228.5, 77.2%, 51.5%)" stroke-width="1.5"></path><path d="M1106.12 556.71L1106.12 556.71" stroke="hsl(228.5, 77.2%, 51.5%)" stroke-width="1.5"></path><path d="M1106.12 556.71L971.15 540.91" stroke="hsl(228.5, 77.2%, 51.5%)" stroke-width="1.5"></path><path d="M1106.12 556.71L1145.86 701.21" stroke="hsl(228.5, 77.2%, 51.5%)" stroke-width="1.5"></path><path d="M1106.12 556.71L1298 517.68" stroke="hsl(228.5, 77.2%, 51.5%)" stroke-width="1.5"></path><path d="M1106.12 556.71L952.82 390.23" stroke="hsl(228.5, 77.2%, 51.5%)" stroke-width="1.5"></path><path d="M1145.86 701.21L1145.86 701.21" stroke="hsl(228.5, 77.2%, 51.5%)" stroke-width="1.5"></path><path d="M1145.86 701.21L1291.77 700.85" stroke="hsl(228.5, 77.2%, 51.5%)" stroke-width="1.5"></path><path d="M1288.55 -103.61L1288.55 -103.61" stroke="hsl(228.5, 77.2%, 51.5%)" stroke-width="1.5"></path><path d="M1265.67 224.2L1265.67 224.2" stroke="hsl(228.5, 77.2%, 51.5%)" stroke-width="1.5"></path><path d="M1265.67 224.2L1426.48 246.65" stroke="hsl(228.5, 77.2%, 51.5%)" stroke-width="1.5"></path><path d="M1298 517.68L1298 517.68" stroke="hsl(228.5, 77.2%, 51.5%)" stroke-width="1.5"></path><path d="M1298 517.68L1460.94 516.87" stroke="hsl(228.5, 77.2%, 51.5%)" stroke-width="1.5"></path><path d="M1298 517.68L1291.77 700.85" stroke="hsl(228.5, 77.2%, 51.5%)" stroke-width="1.5"></path><path d="M1298 517.68L1421.63 348.41" stroke="hsl(228.5, 77.2%, 51.5%)" stroke-width="1.5"></path><path d="M1298 517.68L1130.92 381.62" stroke="hsl(228.5, 77.2%, 51.5%)" stroke-width="1.5"></path><path d="M1291.77 700.85L1291.77 700.85" stroke="hsl(228.5, 77.2%, 51.5%)" stroke-width="1.5"></path><path d="M1291.77 700.85L1106.12 556.71" stroke="hsl(228.5, 77.2%, 51.5%)" stroke-width="1.5"></path><path d="M1291.77 700.85L1460.94 516.87" stroke="hsl(228.5, 77.2%, 51.5%)" stroke-width="1.5"></path><path d="M1291.77 700.85L1566.71 557.94" stroke="hsl(228.5, 77.2%, 51.5%)" stroke-width="1.5"></path><path d="M1393.74 106.42L1393.74 106.42" stroke="hsl(228.5, 77.2%, 51.5%)" stroke-width="1.5"></path><path d="M1393.74 106.42L1426.48 246.65" stroke="hsl(228.5, 77.2%, 51.5%)" stroke-width="1.5"></path><path d="M1393.74 106.42L1265.67 224.2" stroke="hsl(228.5, 77.2%, 51.5%)" stroke-width="1.5"></path><path d="M1393.74 106.42L1568.79 68.51" stroke="hsl(228.5, 77.2%, 51.5%)" stroke-width="1.5"></path><path d="M1426.48 246.65L1426.48 246.65" stroke="hsl(228.5, 77.2%, 51.5%)" stroke-width="1.5"></path><path d="M1426.48 246.65L1421.63 348.41" stroke="hsl(228.5, 77.2%, 51.5%)" stroke-width="1.5"></path><path d="M1426.48 246.65L1602.49 237.87" stroke="hsl(228.5, 77.2%, 51.5%)" stroke-width="1.5"></path><path d="M1421.63 348.41L1421.63 348.41" stroke="hsl(228.5, 77.2%, 51.5%)" stroke-width="1.5"></path><path d="M1421.63 348.41L1460.94 516.87" stroke="hsl(228.5, 77.2%, 51.5%)" stroke-width="1.5"></path><path d="M1421.63 348.41L1602.6 369.28" stroke="hsl(228.5, 77.2%, 51.5%)" stroke-width="1.5"></path><path d="M1421.63 348.41L1265.67 224.2" stroke="hsl(228.5, 77.2%, 51.5%)" stroke-width="1.5"></path><path d="M1460.94 516.87L1460.94 516.87" stroke="hsl(228.5, 77.2%, 51.5%)" stroke-width="1.5"></path><path d="M1568.79 68.51L1568.79 68.51" stroke="hsl(228.5, 77.2%, 51.5%)" stroke-width="1.5"></path><path d="M1568.79 68.51L1602.49 237.87" stroke="hsl(228.5, 77.2%, 51.5%)" stroke-width="1.5"></path><path d="M1568.79 68.51L1395.33 -79.12" stroke="hsl(228.5, 77.2%, 51.5%)" stroke-width="1.5"></path><path d="M1602.49 237.87L1602.49 237.87" stroke="hsl(228.5, 77.2%, 51.5%)" stroke-width="1.5"></path><path d="M1602.49 237.87L1602.6 369.28" stroke="hsl(228.5, 77.2%, 51.5%)" stroke-width="1.5"></path><path d="M1602.49 237.87L1421.63 348.41" stroke="hsl(228.5, 77.2%, 51.5%)" stroke-width="1.5"></path><path d="M1602.49 237.87L1393.74 106.42" stroke="hsl(228.5, 77.2%, 51.5%)" stroke-width="1.5"></path><path d="M1602.6 369.28L1602.6 369.28" stroke="hsl(228.5, 77.2%, 51.5%)" stroke-width="1.5"></path><path d="M1602.6 369.28L1460.94 516.87" stroke="hsl(228.5, 77.2%, 51.5%)" stroke-width="1.5"></path><path d="M1602.6 369.28L1426.48 246.65" stroke="hsl(228.5, 77.2%, 51.5%)" stroke-width="1.5"></path><path d="M1606.9 705.5L1606.9 705.5" stroke="hsl(228.5, 77.2%, 51.5%)" stroke-width="1.5"></path><path d="M1606.9 705.5L1460.94 516.87" stroke="hsl(228.5, 77.2%, 51.5%)" stroke-width="1.5"></path><path d="M1606.9 705.5L1291.77 700.85" stroke="hsl(228.5, 77.2%, 51.5%)" stroke-width="1.5"></path><path d="M1606.9 705.5L1602.6 369.28" stroke="hsl(228.5, 77.2%, 51.5%)" stroke-width="1.5"></path><path d="M1606.9 705.5L1298 517.68" stroke="hsl(228.5, 77.2%, 51.5%)" stroke-width="1.5"></path><circle r="25" cx="688.67" cy="404.74" fill="url(&quot;#SvgjsRadialGradient1001&quot;)"></circle><circle r="25" cx="1000.65" cy="243.47" fill="url(&quot;#SvgjsRadialGradient1001&quot;)"></circle><circle r="25" cx="1289.31" cy="105.89" fill="url(&quot;#SvgjsRadialGradient1001&quot;)"></circle><circle r="25" cx="1395.33" cy="-79.12" fill="url(&quot;#SvgjsRadialGradient1001&quot;)"></circle><circle r="25" cx="1457.38" cy="705.03" fill="url(&quot;#SvgjsRadialGradient1001&quot;)"></circle><circle r="25" cx="1566.71" cy="557.94" fill="url(&quot;#SvgjsRadialGradient1001&quot;)"></circle><circle r="5" cx="-103.96" cy="518.21" fill="#8b9ad9"></circle><circle r="5" cx="-49.98" cy="658.48" fill="#8b9ad9"></circle><circle r="5" cx="99.96" cy="553.02" fill="#8b9ad9"></circle><circle r="5" cx="59.11" cy="690.3" fill="#8b9ad9"></circle><circle r="5" cx="213.66" cy="542.31" fill="#8b9ad9"></circle><circle r="5" cx="250.62" cy="708.69" fill="#8b9ad9"></circle><circle r="5" cx="406.22" cy="509.47" fill="#8b9ad9"></circle><circle r="5" cx="402.04" cy="710.81" fill="#8b9ad9"></circle><circle r="5" cx="505.41" cy="517.21" fill="#8b9ad9"></circle><circle r="5" cx="489.62" cy="638.07" fill="#8b9ad9"></circle><circle r="5" cx="699.26" cy="540.13" fill="#8b9ad9"></circle><circle r="5" cx="659.85" cy="693.41" fill="#8b9ad9"></circle><circle r="5" cx="809.76" cy="338.85" fill="#8b9ad9"></circle><circle r="5" cx="847.35" cy="512.93" fill="#8b9ad9"></circle><circle r="5" cx="808.02" cy="647.32" fill="#8b9ad9"></circle><circle r="5" cx="952.82" cy="390.23" fill="#8b9ad9"></circle><circle r="5" cx="971.15" cy="540.91" fill="#8b9ad9"></circle><circle r="5" cx="979.87" cy="698.27" fill="#8b9ad9"></circle><circle r="5" cx="1096.79" cy="205.63" fill="#8b9ad9"></circle><circle r="5" cx="1130.92" cy="381.62" fill="#8b9ad9"></circle><circle r="5" cx="1106.12" cy="556.71" fill="#8b9ad9"></circle><circle r="5" cx="1145.86" cy="701.21" fill="#8b9ad9"></circle><circle r="5" cx="1288.55" cy="-103.61" fill="#8b9ad9"></circle><circle r="5" cx="1265.67" cy="224.2" fill="#8b9ad9"></circle><circle r="5" cx="1298" cy="517.68" fill="#8b9ad9"></circle><circle r="5" cx="1291.77" cy="700.85" fill="#8b9ad9"></circle><circle r="5" cx="1393.74" cy="106.42" fill="#8b9ad9"></circle><circle r="5" cx="1426.48" cy="246.65" fill="#8b9ad9"></circle><circle r="5" cx="1421.63" cy="348.41" fill="#8b9ad9"></circle><circle r="5" cx="1460.94" cy="516.87" fill="#8b9ad9"></circle><circle r="5" cx="1568.79" cy="68.51" fill="#8b9ad9"></circle><circle r="5" cx="1602.49" cy="237.87" fill="#8b9ad9"></circle><circle r="5" cx="1602.6" cy="369.28" fill="#8b9ad9"></circle><circle r="5" cx="1606.9" cy="705.5" fill="#8b9ad9"></circle></g><defs><mask id="SvgjsMask1000"><rect width="1440" height="560" fill="#ffffff"></rect></mask><radialGradient id="SvgjsRadialGradient1001"><stop stop-color="#ffffff" offset="0.1"></stop><stop stop-color="#1735b3" offset="0.2"></stop><stop stop-color="rgba(23, 53, 179, 0)" offset="1"></stop></radialGradient></defs></svg>